<?xml version="1.0" encoding="iso-8859-1"?>
<!-- Uploaded to: SVG Repo, www.svgrepo.com, Generator: SVG Repo Mixer Tools -->
<svg height="800px" width="800px" version="1.1" id="Layer_1" xmlns="http://www.w3.org/2000/svg" xmlns:xlink="http://www.w3.org/1999/xlink" 
	 viewBox="0 0 511.998 511.998" xml:space="preserve">
<circle style="fill:#FF5B62;" cx="255.999" cy="255.999" r="255.999"/>
<path style="fill:#666666;" d="M163.915,73.862h184.169c2.906,0,5.263,2.356,5.263,5.263v353.748c0,2.906-2.356,5.263-5.263,5.263
	H163.915c-2.906,0-5.263-2.356-5.263-5.263V79.125C158.652,76.219,161.008,73.862,163.915,73.862z"/>
<path style="fill:#FFFFFF;" d="M171.986,123.021h168.024c2.258,0,4.088,1.83,4.088,4.088v257.779c0,2.258-1.83,4.088-4.088,4.088
	H171.986c-2.258,0-4.088-1.83-4.088-4.088V127.109C167.898,124.852,169.729,123.021,171.986,123.021z"/>
<g>
	<path style="fill:#C0C1C4;" d="M211.78,96.351h88.432c2.031,0,3.678,1.647,3.678,3.678l0,0c0,2.031-1.647,3.678-3.678,3.678H211.78
		c-2.031,0-3.678-1.647-3.678-3.678l0,0C208.102,97.998,209.749,96.351,211.78,96.351z"/>
	<circle style="fill:#C0C1C4;" cx="255.27" cy="414.648" r="12.215"/>
	<circle style="fill:#C0C1C4;" cx="182.902" cy="100.344" r="4.174"/>
</g>
<path style="fill:#FAD24D;" d="M422.977,259.716l11.688-15.676l27.483,15.868l-7.741,17.983c5.327,4.405,10.226,9.307,14.633,14.633
	l17.983-7.741l15.868,27.483l-15.676,11.688c2.388,6.405,4.189,13.096,5.347,20.007l19.436,2.286v31.737l-19.436,2.287
	c-1.156,6.91-2.956,13.599-5.347,20.007l15.676,11.688l-15.868,27.483l-17.985-7.741c-4.405,5.327-9.307,10.226-14.633,14.633
	l7.741,17.983l-27.483,15.868l-11.69-15.676c-6.405,2.388-13.096,4.189-20.007,5.347l-2.286,19.436h-31.737l-2.286-19.436
	c-6.909-1.156-13.599-2.956-20.007-5.347l-11.688,15.676l-27.483-15.868l7.741-17.985c-5.327-4.405-10.226-9.307-14.633-14.633
	l-17.983,7.741l-15.868-27.483l15.676-11.69c-2.388-6.405-4.189-13.096-5.347-20.007l-19.436-2.286v-31.737l19.436-2.287
	c1.156-6.909,2.956-13.599,5.347-20.007l-15.676-11.688l15.868-27.483l17.985,7.741c4.405-5.327,9.307-10.226,14.633-14.633
	l-7.741-17.983l27.483-15.868l11.69,15.676c6.405-2.388,13.096-4.189,20.007-5.347l2.287-19.436h31.737l2.287,19.436
	c6.907,1.156,13.601,2.956,20.007,5.347L422.977,259.716L422.977,259.716z"/>
<circle style="fill:#FFFFFF;" cx="384.817" cy="362.111" r="94.315"/>
<circle style="fill:#21D0C3;" cx="384.817" cy="362.111" r="88.098"/>
<path style="fill:#FFFFFF;" d="M384.818,288.744c20.26,0,38.604,8.211,51.882,21.488c13.275,13.278,21.488,31.62,21.488,51.882
	s-8.211,38.604-21.488,51.882c-13.277,13.278-31.622,21.491-51.882,21.491c-20.264,0-38.604-8.213-51.882-21.491
	c-13.278-13.278-21.491-31.62-21.491-51.882s8.213-38.604,21.491-51.882c13.278-13.278,31.62-21.488,51.884-21.488H384.818z
	 M437.379,402.658L437.379,402.658c-4.626-2.187-10.565-3.942-17.308-5.27c-0.615,1.311-1.268,2.608-1.953,3.887
	c-5.459,10.158-13.205,19.272-23.237,26.46c14.303-2.174,27.106-8.915,36.876-18.683c2.009-2.006,3.887-4.143,5.625-6.395
	L437.379,402.658L437.379,402.658z M374.758,427.736L374.758,427.736c-10.032-7.188-17.78-16.3-23.237-26.46
	c-0.684-1.27-1.331-2.56-1.942-3.86c-6.732,1.325-12.669,3.074-17.319,5.25c1.74,2.249,3.616,4.383,5.625,6.39
	c9.77,9.77,22.571,16.51,36.876,18.683L374.758,427.736z M328.249,396.858L328.249,396.858c4.994-2.474,11.377-4.469,18.603-5.981
	c-2.974-8.111-4.646-16.651-5.016-25.241h-23.3c0.598,11.41,4.075,22.053,9.715,31.221v0.001H328.249z M318.532,358.644
	L318.532,358.644h23.289c0.368-9.375,2.291-18.688,5.768-27.448c-6.989-1.422-13.222-3.286-18.212-5.596
	c-6.315,9.571-10.219,20.873-10.846,33.041v0.003H318.532z M333.619,319.868L333.619,319.868c4.65,1.993,10.427,3.598,16.896,4.822
	c0.37-0.737,0.755-1.466,1.149-2.192c5.435-9.987,13.101-18.933,22.99-25.984c-14.261,2.192-27.025,8.919-36.77,18.666
	C336.389,316.675,334.966,318.238,333.619,319.868z M394.985,296.514L394.985,296.514c9.893,7.051,17.555,15.996,22.992,25.984
	c0.399,0.735,0.787,1.473,1.16,2.218c6.48-1.224,12.257-2.835,16.889-4.838c-1.347-1.632-2.774-3.199-4.269-4.697
	c-9.745-9.745-22.509-16.473-36.77-18.666L394.985,296.514z M440.27,325.621L440.27,325.621c-4.967,2.319-11.203,4.189-18.207,5.609
	c3.468,8.749,5.386,18.054,5.753,27.417h23.292c-0.626-12.162-4.526-23.457-10.837-33.024v-0.002H440.27z M451.102,365.638
	L451.102,365.638h-23.298c-0.368,8.577-2.039,17.108-5.005,25.208c7.241,1.515,13.626,3.514,18.598,6.001
	C447.032,387.682,450.507,377.042,451.102,365.638z M388.317,300.419L388.317,300.419v27.164c8.129-0.124,16.161-0.688,23.568-1.698
	l-0.029-0.053c-5.408-9.942-13.255-18.747-23.537-25.413H388.317z M388.317,334.578L388.317,334.578v24.066h32.523
	c-0.381-8.967-2.319-17.866-5.801-26.178C406.67,333.736,397.529,334.439,388.317,334.578z M388.317,365.638L388.317,365.638v21.707
	c9.498,0.144,18.922,0.888,27.501,2.234c2.954-7.666,4.624-15.776,5.009-23.94H388.317z M388.317,394.338L388.317,394.338v29.445
	c10.348-6.785,18.234-15.734,23.652-25.814c0.319-0.591,0.629-1.191,0.93-1.791C405.215,395.082,396.819,394.467,388.317,394.338z
	 M381.322,423.785L381.322,423.785v-29.441c-8.493,0.139-16.883,0.759-24.573,1.861c0.297,0.593,0.604,1.182,0.919,1.769
	c5.419,10.082,13.304,19.03,23.654,25.814V423.785z M381.322,387.347L381.322,387.347v-21.712h-32.51
	c0.383,8.176,2.057,16.294,5.016,23.967c8.588-1.351,18.007-2.104,27.492-2.258L381.322,387.347z M381.322,358.642L381.322,358.642
	v-24.07c-9.201-0.148-18.335-0.86-26.71-2.137c-3.492,8.319-5.43,17.228-5.815,26.207h32.526H381.322z M381.322,327.578
	L381.322,327.578v-27.162c-10.281,6.665-18.131,15.472-23.537,25.413l-0.02,0.031C365.175,326.875,373.201,327.448,381.322,327.578z
	"/>
<path style="fill:#FFBB1C;" d="M187.806,140.519h27.272c3.221,0,5.832,2.611,5.832,5.832v27.272c0,3.221-2.611,5.832-5.832,5.832
	h-27.272c-3.221,0-5.832-2.611-5.832-5.832v-27.272C181.975,143.13,184.586,140.519,187.806,140.519z"/>
<path style="fill:#21D0C3;" d="M242.363,140.519h27.272c3.221,0,5.832,2.611,5.832,5.832v27.272c0,3.221-2.611,5.832-5.832,5.832
	h-27.272c-3.221,0-5.832-2.611-5.832-5.832v-27.272C236.531,143.13,239.142,140.519,242.363,140.519z"/>
<g>
	<path style="fill:#FF5B62;" d="M296.918,140.519h27.272c3.221,0,5.832,2.611,5.832,5.832v27.272c0,3.221-2.611,5.832-5.832,5.832
		h-27.272c-3.221,0-5.832-2.611-5.832-5.832v-27.272C291.085,143.13,293.697,140.519,296.918,140.519z"/>
	<path style="fill:#FF5B62;" d="M187.806,188.86h27.272c3.221,0,5.832,2.611,5.832,5.832v27.272c0,3.221-2.611,5.832-5.832,5.832
		h-27.272c-3.221,0-5.832-2.611-5.832-5.832v-27.272C181.975,191.471,184.586,188.86,187.806,188.86z"/>
</g>
<path style="fill:#FFBA1B;" d="M242.363,188.86h27.272c3.221,0,5.832,2.611,5.832,5.832v27.272c0,3.221-2.611,5.832-5.832,5.832
	h-27.272c-3.221,0-5.832-2.611-5.832-5.832v-27.272C236.531,191.471,239.142,188.86,242.363,188.86z"/>
<g>
	<path style="fill:#21D0C3;" d="M296.918,188.86h27.272c3.221,0,5.832,2.611,5.832,5.832v27.272c0,3.221-2.611,5.832-5.832,5.832
		h-27.272c-3.221,0-5.832-2.611-5.832-5.832v-27.272C291.085,191.471,293.697,188.86,296.918,188.86z"/>
	<path style="fill:#21D0C3;" d="M187.806,237.204h27.272c3.221,0,5.832,2.611,5.832,5.832v27.272c0,3.221-2.611,5.832-5.832,5.832
		h-27.272c-3.221,0-5.832-2.611-5.832-5.832v-27.272C181.975,239.815,184.586,237.204,187.806,237.204z"/>
</g>
<path style="fill:#FF5B62;" d="M242.363,237.204h27.272c3.221,0,5.832,2.611,5.832,5.832v27.272c0,3.221-2.611,5.832-5.832,5.832
	h-27.272c-3.221,0-5.832-2.611-5.832-5.832v-27.272C236.531,239.815,239.142,237.204,242.363,237.204z"/>
</svg>